<?xml version="1.0" standalone="no"?>
<!DOCTYPE svg PUBLIC "-//W3C//DTD SVG 20010904//EN"
 "http://www.w3.org/TR/2001/REC-SVG-20010904/DTD/svg10.dtd">
<svg version="1.0" xmlns="http://www.w3.org/2000/svg"
 width="20.000000pt" height="20.000000pt" viewBox="0 0 20.000000 20.000000"
 preserveAspectRatio="xMidYMid meet">

<g transform="translate(0.000000,20.000000) scale(0.100000,-0.100000)"
fill="#000000" stroke="none">
<path d="M33 185 c-27 -19 -37 -61 -23 -96 15 -35 62 -56 93 -41 18 8 27 5 54
-21 42 -40 56 -26 16 16 -26 27 -29 36 -21 54 30 63 -60 129 -119 88z m89 -22
c38 -34 11 -103 -40 -103 -53 0 -83 68 -46 104 20 21 63 20 86 -1z"/>
</g>
</svg>
